<svg width="28" height="28" viewBox="0 0 28 28" fill="none" xmlns="http://www.w3.org/2000/svg">
<path d="M16.6797 14C16.6797 15.48 15.48 16.6797 14 16.6797C12.52 16.6797 11.3203 15.48 11.3203 14C11.3203 12.52 12.52 11.3203 14 11.3203C15.48 11.3203 16.6797 12.52 16.6797 14Z" fill="#FFFB91"/>
<path d="M20.2667 9.25891C20.1379 8.90985 19.9324 8.5939 19.6653 8.33456C19.406 8.06754 19.0903 7.86203 18.741 7.73322C18.4577 7.6232 18.0322 7.49225 17.2484 7.45657C16.4006 7.41791 16.1463 7.40958 13.9999 7.40958C11.8532 7.40958 11.599 7.41769 10.7513 7.45636C9.96752 7.49225 9.54177 7.6232 9.25872 7.73322C8.90945 7.86203 8.5935 8.06754 8.33438 8.33456C8.06735 8.5939 7.86185 8.90964 7.73282 9.25891C7.6228 9.54218 7.49185 9.96793 7.45618 10.7517C7.41751 11.5994 7.40918 11.8536 7.40918 14.0003C7.40918 16.1468 7.41751 16.401 7.45618 17.2488C7.49185 18.0326 7.6228 18.4582 7.73282 18.7414C7.86185 19.0907 8.06714 19.4064 8.33417 19.6658C8.5935 19.9328 8.90924 20.1383 9.25851 20.2671C9.54177 20.3774 9.96752 20.5083 10.7513 20.544C11.599 20.5826 11.853 20.5908 13.9996 20.5908C16.1466 20.5908 16.4008 20.5826 17.2482 20.544C18.032 20.5083 18.4577 20.3774 18.741 20.2671C19.4421 19.9967 19.9962 19.4425 20.2667 18.7414C20.3767 18.4582 20.5077 18.0326 20.5435 17.2488C20.5822 16.401 20.5903 16.1468 20.5903 14.0003C20.5903 11.8536 20.5822 11.5994 20.5435 10.7517C20.5079 9.96793 20.3769 9.54218 20.2667 9.25891V9.25891ZM13.9999 18.1281C11.7199 18.1281 9.87161 16.2801 9.87161 14.0001C9.87161 11.7201 11.7199 9.87201 13.9999 9.87201C16.2796 9.87201 18.1279 11.7201 18.1279 14.0001C18.1279 16.2801 16.2796 18.1281 13.9999 18.1281ZM18.2911 10.6735C17.7583 10.6735 17.3264 10.2416 17.3264 9.7088C17.3264 9.17603 17.7583 8.74408 18.2911 8.74408C18.8239 8.74408 19.2558 9.17603 19.2558 9.7088C19.2556 10.2416 18.8239 10.6735 18.2911 10.6735Z" fill="#FFFB91"/>
<path d="M14 0C6.2692 0 0 6.2692 0 14C0 21.7308 6.2692 28 14 28C21.7308 28 28 21.7308 28 14C28 6.2692 21.7308 0 14 0ZM21.9906 17.3144C21.9517 18.1701 21.8156 18.7544 21.6169 19.2658C21.1993 20.3457 20.3457 21.1993 19.2658 21.6169C18.7546 21.8156 18.1701 21.9515 17.3146 21.9906C16.4573 22.0297 16.1834 22.0391 14.0002 22.0391C11.8168 22.0391 11.5431 22.0297 10.6856 21.9906C9.83008 21.9515 9.24561 21.8156 8.73441 21.6169C8.19778 21.4151 7.71201 21.0987 7.31039 20.6896C6.90152 20.2882 6.58514 19.8022 6.38327 19.2658C6.1846 18.7546 6.04852 18.1701 6.00964 17.3146C5.97012 16.4571 5.96094 16.1832 5.96094 14C5.96094 11.8168 5.97012 11.5429 6.00943 10.6856C6.04831 9.82986 6.18417 9.24561 6.38284 8.73419C6.58472 8.19778 6.90131 7.71179 7.31039 7.31039C7.71179 6.90131 8.19778 6.58493 8.73419 6.38306C9.24561 6.18439 9.82986 6.04852 10.6856 6.00943C11.5429 5.97034 11.8168 5.96094 14 5.96094C16.1832 5.96094 16.4571 5.97034 17.3144 6.00964C18.1701 6.04852 18.7544 6.18439 19.2658 6.38284C19.8022 6.58472 20.2882 6.90131 20.6898 7.31039C21.0987 7.71201 21.4153 8.19778 21.6169 8.73419C21.8158 9.24561 21.9517 9.82986 21.9908 10.6856C22.0299 11.5429 22.0391 11.8168 22.0391 14C22.0391 16.1832 22.0299 16.4571 21.9906 17.3144V17.3144Z" fill="#FFFB91"/>
</svg>
